<?xml version="1.0" encoding="UTF-8"?>
<svg width="350px" height="90px" viewBox="0 0 350 90" version="1.1" xmlns="http://www.w3.org/2000/svg" xmlns:xlink="http://www.w3.org/1999/xlink">
    <title>hearplus</title>
    <defs>
        <path d="M127.84,70 L127.84,40.03 C127.84,37.2100005 128.725,35.0649995 130.495,33.595 C132.265,32.1250005 134.68,31.39 137.74,31.39 C144.1,31.39 147.28,34.18 147.28,39.76 L147.28,70 L157.27,70 L157.27,40.48 C157.27,34.6599995 155.77,30.2499995 152.77,27.25 C149.77,24.2500005 145.63,22.75 140.35,22.75 C135.01,22.75 130.84,24.2500005 127.84,27.25 L127.84,3.4 L117.85,3.4 L117.85,70 L127.84,70 Z M187.15,70.9 C192.91,70.9 197.515,69.5650005 200.965,66.895 C204.415,64.2249995 206.35,60.3400005 206.77,55.24 L196.69,55.24 C196.09,59.92 192.91,62.26 187.15,62.26 C184.03,62.26 181.63,61.495 179.95,59.965 C178.27,58.435 177.43,56.2900005 177.43,53.53 L177.43,49.93 L206.77,49.93 L206.77,40.66 C206.77,34.8399995 205.015,30.4 201.505,27.34 C197.995,24.28 193.21,22.75 187.15,22.75 C181.03,22.75 176.2,24.28 172.66,27.34 C169.12,30.4 167.35,34.8399995 167.35,40.66 L167.35,52.9 C167.35,58.66 169.12,63.0999995 172.66,66.22 C176.2,69.3400005 181.03,70.9 187.15,70.9 Z M196.78,42.28 L177.43,42.28 L177.43,40.03 C177.43,37.2100005 178.3,35.0649995 180.04,33.595 C181.78,32.1250005 184.15,31.39 187.15,31.39 C190.15,31.39 192.505,32.11 194.215,33.55 C195.925,34.99 196.78,37.15 196.78,40.03 L196.78,42.28 Z M231.16,70.9 C237.94,70.9 242.77,68.83 245.65,64.69 C247.93,70.0299995 253.12,71.8 261.22,70 L261.22,61.72 C258.52,62.26 256.645,62.035 255.595,61.045 C254.545,60.055 254.02,57.9100005 254.02,54.61 L254.02,39.58 C254.02,34.1199995 252.37,29.95 249.07,27.07 C245.77,24.19 241.21,22.75 235.39,22.75 C229.39,22.75 224.8,24.0399995 221.62,26.62 C218.44,29.2000005 216.85,32.9800005 216.85,37.96 L226.84,37.96 C226.84,35.5000005 227.53,33.7149995 228.91,32.605 C230.29,31.4950005 232.45,30.94 235.39,30.94 C238.09,30.94 240.205,31.6449995 241.735,33.055 C243.265,34.4650005 244.03,36.4599995 244.03,39.04 L244.03,46.42 C241.03,43.72 236.77,42.37 231.25,42.37 C226.03,42.37 221.95,43.5699995 219.01,45.97 C216.07,48.3700005 214.6,51.91 214.6,56.59 C214.6,61.27 216.07,64.825 219.01,67.255 C221.95,69.685 226,70.9 231.16,70.9 Z M234.13,62.26 C227.77,62.26 224.59,60.28 224.59,56.32 C224.59,52.2999995 227.77,50.29 234.13,50.29 C237.19,50.29 239.605,50.8149995 241.375,51.865 C243.145,52.9150005 244.03,54.4000005 244.03,56.32 C244.03,58.2399995 243.145,59.7100005 241.375,60.73 C239.605,61.7499995 237.19,62.26 234.13,62.26 Z M297.13,70 L297.13,61.36 L283.9,61.36 L283.9,40.66 C283.9,37.24 285.43,34.7350005 288.49,33.145 C291.55,31.5549995 295.6,31.2700005 300.64,32.29 L300.64,23.29 C291.82,22.0900005 285.16,23.065 280.66,26.215 C276.16,29.365 273.91,34.18 273.91,40.66 L273.91,61.36 L263.29,61.36 L263.29,70 L297.13,70 Z" id="path-1"></path>
        <polygon id="path-2" points="330.43 59.11 330.43 42.73 346.27 42.73 346.27 34.09 330.43 34.09 330.43 17.62 321.34 17.62 321.34 34.09 305.59 34.09 305.59 42.73 321.34 42.73 321.34 59.11"></polygon>
    </defs>
    <g id="Page-1" stroke="none" stroke-width="1" fill="none" fill-rule="evenodd">
        <g id="hearplus" fill-rule="nonzero">
            <g id="sentien-logo-svg" transform="translate(0.000000, 30.000000)" fill="#00FFA1">
                <polygon id="Path" points="0 22.357931 22.1430725 0 36.7137258 14.7139486 51.2862742 0 65.8588225 14.7139486 80.4294759 0 88 7.6439824 65.8588225 29.9980866 51.2862742 15.284138 36.7137258 29.9980866 22.1430725 15.2860514 7.56862914 30"></polygon>
            </g>
            <g id="hear">
                <use fill="#000000" xlink:href="#path-1"></use>
                <use fill="#FFFFFF" xlink:href="#path-1"></use>
            </g>
            <g id="+">
                <use fill="#000000" xlink:href="#path-2"></use>
                <use fill="#A9A9A9" xlink:href="#path-2"></use>
            </g>
        </g>
    </g>
</svg>